<?xml version="1.0" encoding="iso-8859-1"?>
<!-- Generator: Adobe Illustrator 19.0.0, SVG Export Plug-In . SVG Version: 6.00 Build 0)  -->
<svg version="1.1" id="Layer_1" xmlns="http://www.w3.org/2000/svg" xmlns:xlink="http://www.w3.org/1999/xlink" x="0px" y="0px"
	 viewBox="0 0 511.999 511.999" style="enable-background:new 0 0 511.999 511.999;" xml:space="preserve">
<g>
	<g>
		<path d="M459.239,26.779L422.447,1.674C420.849,0.583,418.959,0,417.025,0h-37.908c-5.313,0-9.618,4.306-9.618,9.618
			c0,5.312,4.305,9.618,9.618,9.618h28.289v127.63c0,5.312,4.305,9.618,9.618,9.618c5.313,0,9.618-4.306,9.618-9.618V27.825
			l17.555,11.979v144.2l-17.555,11.979v-14.493c0-5.312-4.305-9.618-9.618-9.618c-5.313,0-9.618,4.306-9.618,9.618v23.083H104.593
			V46.199c0-5.312-4.305-9.618-9.618-9.618c-5.313,0-9.618,4.306-9.618,9.618v149.785L67.8,184.004v-144.2l30.144-20.568h248.537
			c5.313,0,9.618-4.306,9.618-9.618c0-5.312-4.305-9.618-9.618-9.618H94.975c-1.934,0-3.823,0.583-5.422,1.674L52.76,26.779
			c-2.626,1.792-4.196,4.766-4.196,7.945v154.362c0,3.179,1.571,6.153,4.196,7.945l36.793,25.105
			c1.598,1.09,3.488,1.674,5.422,1.674h192.052v221.244h-62.053V244.325c0-5.312-4.305-9.618-9.618-9.618s-9.618,4.306-9.618,9.618
			v200.727h-1.743c-5.313,0-9.618,4.306-9.618,9.618v47.709c0,5.312,4.305,9.618,9.618,9.618h104.012
			c5.313,0,9.618-4.306,9.618-9.618v-47.709c0-5.312-4.305-9.618-9.618-9.618h-1.743V223.809h110.762
			c1.934,0,3.823-0.583,5.422-1.674l36.792-25.105c2.626-1.792,4.196-4.766,4.196-7.945V34.723
			C463.437,31.544,461.866,28.57,459.239,26.779z M298.388,492.763h-84.776v-28.473h84.776V492.763z"/>
	</g>
</g>
<g>
	<g>
		<path d="M312.124,88.19c-2.07-4.894-7.715-7.179-12.605-5.112c-4.891,2.07-7.182,7.714-5.111,12.605
			c2.17,5.131,3.271,10.589,3.271,16.22c0,22.983-18.697,41.679-41.679,41.679s-41.679-18.697-41.679-41.679
			s18.697-41.678,41.679-41.678c4.789,0,9.481,0.803,13.945,2.387c5.002,1.776,10.503-0.841,12.281-5.848
			c1.776-5.007-0.841-10.504-5.849-12.281c-6.535-2.319-13.39-3.495-20.378-3.495c-33.588,0-60.916,27.326-60.916,60.916
			s27.328,60.916,60.916,60.916s60.916-27.326,60.916-60.916C316.915,103.684,315.303,95.706,312.124,88.19z"/>
	</g>
</g>
<g>
</g>
<g>
</g>
<g>
</g>
<g>
</g>
<g>
</g>
<g>
</g>
<g>
</g>
<g>
</g>
<g>
</g>
<g>
</g>
<g>
</g>
<g>
</g>
<g>
</g>
<g>
</g>
<g>
</g>
</svg>
