<svg id="Capa_1" enable-background="new 0 0 511.998 511.998" height="512" viewBox="0 0 511.998 511.998" width="512" xmlns="http://www.w3.org/2000/svg"><g><g><path d="m372.904 172.435c.362-.332 35.943-32.454 84.889-27.036-11.191 8.65-24.833 21.878-33.928 39.846-1.43 2.825-.921 6.239 1.256 8.539 2.178 2.3 5.576 2.979 8.474 1.705.29-.129 27.642-11.844 58.82-.706-18.027 6.126-42.07 20.152-64.681 51.866h-79.602c-4.347-6.827-8.027-11.41-8.333-11.787-2.606-3.22-7.328-3.717-10.548-1.11-3.219 2.606-3.716 7.329-1.11 10.548.03.037.709.882 1.798 2.35h-13.858c-5.565-10.894-10.829-17.912-11.236-18.448-2.504-3.3-7.208-3.946-10.508-1.443-3.301 2.503-3.947 7.207-1.444 10.508.065.086 2.686 3.584 6.08 9.384h-50.793c6.807-4.605 13.784-8.748 20.84-12.167 3.728-1.806 5.285-6.292 3.479-10.02-1.806-3.727-6.292-5.284-10.02-3.479-43.073 20.87-82.778 65.789-100.386 87.566-7.779-32.284 4.152-56.396 12.215-68.155 2.342-3.417 1.471-8.085-1.945-10.427-3.414-2.342-8.083-1.472-10.427 1.944-2.627 3.832-5.602 8.787-8.341 14.736h-23.805c-4.142 0-7.5 3.357-7.5 7.5s3.358 7.5 7.5 7.5h18.303c-3.086 11.115-4.629 24.321-2.657 39.251h-86.464c-1.622 0-2.941-1.319-2.941-2.941v-33.367c0-1.622 1.319-2.942 2.941-2.942h34.891c4.142 0 7.5-3.357 7.5-7.5s-3.358-7.5-7.5-7.5h-15.252c-13.606-10.389-34.188-23.107-58.757-28.583 13.98-6.399 35.406-13.207 55.145-7.292 2.426 3.296 7.812 10.99 12.376 20.149 1.312 2.633 3.964 4.157 6.719 4.157 1.124 0 2.265-.254 3.339-.789 3.708-1.848 5.215-6.351 3.368-10.058-5.325-10.687-12.345-20.363-14.813-23.682-.402-.568-9.255-12.984-25.128-21.699 22.543-2.623 60.282-2.043 100.258 20.003 2.871 1.582 6.436 1.119 8.805-1.146 2.369-2.266 2.993-5.806 1.542-8.744-.429-.868-9.829-19.78-22.246-35.968 22.249 2.756 58.642 10.251 86.629 30.587 2.282 1.658 5.301 1.896 7.813.615 2.513-1.28 4.095-3.862 4.095-6.683v-11.971c6.858 5.433 11.848 10.823 14.237 15.426 1.206 2.322 3.533 3.848 6.143 4.027 2.612.177 5.125-1.015 6.635-3.149.12-.17 12.246-17.122 34.403-32.887 3.375-2.401 4.164-7.084 1.763-10.459s-7.084-4.166-10.459-1.764c-14.594 10.384-25.183 21.208-31.413 28.34-4.98-5.769-11.109-10.779-16.127-14.425-3.882-2.82-8.953-3.219-13.232-1.037-4.287 2.185-6.951 6.53-6.951 11.341v2.748c-31.096-18.091-67.268-24.193-87.46-26.247-5.175-.519-10.096 2.103-12.54 6.698-2.432 4.571-1.864 10.094 1.447 14.067 4.49 5.391 8.716 11.511 12.326 17.217-40.152-15.804-76.017-13.593-95.461-10.354-5.636.938-9.876 5.381-10.553 11.054-.675 5.658 2.394 10.958 7.636 13.188 2.911 1.238 5.59 2.654 8.027 4.145-18.565.559-36.168 7.396-49.343 14.268-4.869 2.54-7.549 7.897-6.669 13.33.89 5.491 5.004 9.61 10.482 10.492 15.816 2.55 30.199 8.942 41.549 15.482-15.161 1.99-38.103 11.776-48.224 39.823-1.406 3.896.613 8.195 4.509 9.601.841.304 1.7.447 2.545.447 3.071 0 5.953-1.901 7.055-4.956 5.295-14.675 14.579-22.242 22.948-26.152v32.148c0 9.625 7.624 17.481 17.147 17.901v19.389c-9.523.42-17.147 8.277-17.147 17.901v33.367c0 9.893 8.048 17.941 17.941 17.941h385.762c9.893 0 17.941-8.049 17.941-17.941v-33.367c0-9.624-7.624-17.481-17.147-17.901v-19.388c9.523-.42 17.147-8.277 17.147-17.901v-33.367c0-5.113-2.161-9.722-5.604-12.993 11.285-3.699 26.476-6.225 42.382-1.705 3.984 1.132 8.132-1.181 9.264-5.165 1.132-3.985-1.181-8.133-5.165-9.265-17.862-5.073-34.69-2.983-47.765.818 17.508-17.911 34.421-25.638 46.767-28.902 5.263-1.392 8.952-5.809 9.398-11.255.446-5.443-2.473-10.4-7.437-12.629-21.976-9.862-42.666-9.577-57.067-7.221 7.732-9.666 16.52-16.997 23.544-21.995 4.225-3.005 6.2-8.212 5.032-13.267-1.161-5.023-5.192-8.813-10.272-9.653-35.236-5.83-64.202 5.192-82.263 15.427 3.802-8.345 7.812-15.387 10.567-19.914 2.439-4.009 2.473-9.013.087-13.06-2.392-4.057-6.799-6.473-11.502-6.263-16.754.689-33.316 4.355-49.224 10.896-3.831 1.575-5.66 5.957-4.085 9.788s5.955 5.661 9.788 4.085c12.944-5.321 26.353-8.522 39.917-9.537-5.945 10.226-13.036 24.392-17.389 39.783-4.899 4.856-16.778 17.259-22.972 29.147-1.914 3.674-.488 8.203 3.186 10.117 1.107.577 2.292.851 3.459.851 2.707 0 5.32-1.47 6.658-4.036 5.394-10.349 17.529-22.845 20.927-26.209zm-299.726 162.774v-19.309h33.877v19.309zm374.498 17.942v33.367c0 1.622-1.319 2.941-2.941 2.941h-385.763c-1.622 0-2.941-1.319-2.941-2.941v-33.367c0-1.622 1.319-2.941 2.941-2.941h256.76c4.142 0 7.5-3.357 7.5-7.5s-3.358-7.5-7.5-7.5h-193.676v-19.309h26.465c.103.371.193.737.301 1.109 1.335 4.611 5.087 8.051 9.792 8.974.825.162 1.651.241 2.47.241 3.836 0 7.497-1.737 9.941-4.827 1.296-1.638 2.785-3.49 4.427-5.497h206.199v19.309h-29.992c-4.142 0-7.5 3.357-7.5 7.5s3.358 7.5 7.5 7.5h93.075c1.622-.001 2.942 1.319 2.942 2.941zm-51.025-17.942v-19.309h33.877v19.309zm51.025-37.25c0 1.622-1.319 2.941-2.941 2.941h-256.464c10.807-12.124 24.641-26.356 40.093-39.251h78.179c3.004 7.036 5.7 15.138 7.069 23.696.59 3.689 3.776 6.316 7.396 6.316.394 0 .793-.031 1.194-.095 4.09-.654 6.875-4.501 6.221-8.591-1.211-7.571-3.291-14.774-5.727-21.327h16.915c2.698 4.89 5.258 10.366 6.878 15.824.968 3.259 3.953 5.367 7.187 5.367.707 0 1.425-.101 2.137-.313 3.971-1.179 6.234-5.354 5.056-9.324-1.169-3.937-2.72-7.835-4.447-11.555h88.312c1.622 0 2.941 1.32 2.941 2.942v33.37z"/><path d="m90.24 361.817-.104-.001c-.024 0-.048 0-.072 0-4.109 0-7.459 3.312-7.498 7.43-.039 4.142 3.287 7.531 7.429 7.57l.104.001h.072c4.109 0 7.459-3.312 7.498-7.43.038-4.142-3.287-7.531-7.429-7.57z"/><path d="m90.065 273.776c-4.142 0-7.5 3.357-7.5 7.5s3.358 7.5 7.5 7.5h.104c4.142 0 7.5-3.357 7.5-7.5s-3.358-7.5-7.5-7.5z"/><path d="m413.713 361.817-.104-.001c-.024 0-.048 0-.072 0-4.109 0-7.459 3.312-7.498 7.43-.039 4.142 3.287 7.531 7.429 7.57l.104.001h.072c4.109 0 7.459-3.312 7.498-7.43.038-4.142-3.287-7.531-7.429-7.57z"/><path d="m413.642 273.776h-.104c-4.142 0-7.5 3.357-7.5 7.5s3.358 7.5 7.5 7.5h.104c4.142 0 7.5-3.357 7.5-7.5s-3.358-7.5-7.5-7.5z"/></g></g></svg>